<?xml version="1.0" standalone="no"?>
<!DOCTYPE svg PUBLIC "-//W3C//DTD SVG 20010904//EN"
 "http://www.w3.org/TR/2001/REC-SVG-20010904/DTD/svg10.dtd">
<svg version="1.0" xmlns="http://www.w3.org/2000/svg"
 width="1920.000000pt" height="1200.000000pt" viewBox="0 0 1920.000000 1200.000000"
 preserveAspectRatio="xMidYMid meet">

<g transform="translate(0.000000,1200.000000) scale(0.100000,-0.100000)"
fill="#000000" stroke="none">
<path d="M0 6641 l0 -5359 30 -11 c17 -6 45 -17 63 -23 17 -7 34 -13 37 -14 3
0 28 -4 55 -8 73 -11 83 -15 65 -26 -11 -7 -4 -10 25 -11 22 -1 47 -2 55 -3 8
-2 33 -3 55 -4 29 -2 36 -5 25 -12 -8 -5 -11 -12 -7 -17 4 -4 17 -1 28 6 12 7
22 11 23 9 2 -2 8 -12 14 -23 9 -15 11 -16 12 -4 0 14 7 14 57 4 32 -6 65 -14
73 -18 8 -3 42 -8 75 -11 104 -9 155 -18 155 -27 0 -4 7 -6 16 -2 9 3 19 1 23
-6 5 -7 48 -12 120 -14 72 -2 115 -7 120 -15 4 -6 27 -11 52 -10 25 0 61 -3
80 -6 25 -5 30 -4 19 3 -8 6 -10 11 -4 11 6 0 22 -8 35 -18 39 -30 59 -34 59
-12 0 24 13 26 30 4 11 -12 35 -15 132 -13 65 1 121 -1 125 -4 3 -4 1 -7 -6
-7 -7 0 -9 -4 -6 -10 8 -13 125 -13 125 -1 0 6 -19 12 -42 14 -24 2 -6 4 40 5
81 2 82 2 82 -23 0 -21 -5 -25 -30 -25 -16 0 -30 -5 -30 -11 0 -7 23 -8 70 -3
54 5 70 4 70 -6 0 -10 26 -12 120 -7 103 6 120 5 120 -8 0 -11 11 -15 40 -15
29 0 40 4 40 15 0 12 16 15 80 15 83 0 112 -17 38 -22 -24 -2 30 -3 120 -3 91
0 162 4 162 9 0 5 9 1 20 -9 19 -17 21 -17 40 0 11 10 20 13 20 8 0 -6 35 -14
80 -18 44 -4 80 -11 80 -16 0 -5 11 -9 24 -9 13 0 26 -7 30 -15 3 -8 10 -15
16 -15 5 0 10 7 10 15 0 22 8 19 37 -15 32 -39 43 -38 43 4 l0 34 74 7 c47 4
82 3 93 -4 14 -8 7 -10 -34 -11 -29 0 -53 -4 -53 -10 0 -5 -7 -10 -15 -10 -10
0 -15 -10 -15 -30 0 -20 5 -30 15 -30 8 0 15 5 15 10 0 6 60 10 160 10 100 0
160 -4 160 -10 0 -5 -7 -10 -15 -10 -17 0 -20 -25 -5 -35 6 -4 9 -14 8 -23 -2
-12 5 -18 27 -20 16 -2 35 -11 42 -20 9 -12 15 -14 20 -6 5 7 43 15 86 19 42
4 77 11 77 16 0 5 18 9 40 9 36 0 40 -2 40 -25 0 -22 4 -25 40 -25 29 0 40 -4
40 -15 0 -19 76 -21 84 -2 3 8 11 5 24 -10 21 -23 52 -31 52 -13 0 6 18 10 40
10 23 0 40 5 40 11 0 8 5 8 15 -1 26 -21 17 -30 -30 -30 l-45 0 0 -53 c0 -61
20 -100 41 -79 21 20 39 14 60 -23 25 -41 39 -45 39 -10 0 23 4 25 40 25 22 0
40 -4 40 -10 0 -5 -7 -10 -15 -10 -11 0 -15 -11 -15 -40 0 -29 4 -40 15 -40 8
0 15 -7 15 -15 0 -11 11 -15 40 -15 29 0 40 -4 40 -15 0 -11 11 -15 40 -15 38
0 40 2 40 30 0 28 -2 30 -40 30 -22 0 -40 5 -40 10 0 6 23 10 50 10 l50 0 0
-50 c0 -27 -4 -50 -10 -50 -15 0 -12 -49 4 -66 8 -8 26 -14 40 -14 22 0 26 -4
26 -30 0 -29 2 -30 43 -30 24 0 48 5 54 11 13 13 33 4 33 -17 0 -8 -10 -14
-25 -14 -16 0 -25 -6 -25 -15 0 -11 11 -15 40 -15 22 0 40 -4 40 -10 0 -5 7
-10 15 -10 20 0 35 -32 35 -74 l0 -36 95 0 c57 0 95 4 95 10 0 6 -18 10 -40
10 -29 0 -40 4 -40 15 0 19 42 20 108 3 l47 -12 -30 -12 -30 -13 31 -1 c23 0
33 5 37 20 7 26 37 26 44 -1 6 -20 10 -20 312 -17 267 3 310 5 338 20 17 10
55 20 84 23 62 6 104 34 54 36 l-30 1 34 8 c18 4 36 12 40 18 3 5 23 12 44 16
30 6 37 4 37 -9 0 -10 10 -15 30 -15 21 0 30 5 30 16 0 23 25 44 52 43 22 -1
22 -2 -4 -12 -16 -6 -28 -17 -28 -25 0 -10 6 -12 18 -7 9 4 27 10 40 12 12 3
22 9 22 13 0 10 54 32 71 29 20 -3 69 12 69 21 0 4 15 13 33 20 17 6 49 20 70
31 22 10 45 19 52 19 7 0 23 8 36 19 13 10 35 21 49 25 14 4 41 14 60 22 19 9
46 20 60 26 14 6 37 17 52 24 14 8 33 14 42 14 9 0 16 5 16 10 0 6 7 10 17 10
9 0 69 24 133 54 64 30 136 60 161 66 24 7 51 18 59 25 8 7 26 16 40 19 14 4
45 17 70 28 25 11 54 25 65 30 12 5 27 10 35 12 14 3 24 6 68 23 9 3 19 7 22
8 3 1 19 7 35 14 97 39 154 61 161 61 8 0 149 54 201 77 61 26 115 43 142 43
17 0 22 3 13 8 -7 5 7 13 40 21 29 8 58 17 63 21 6 4 24 10 40 14 17 4 44 14
61 22 17 8 35 14 40 13 5 -1 16 1 24 4 8 3 31 10 50 16 53 15 123 40 142 51
10 5 27 6 39 2 19 -7 20 -10 6 -15 -10 -4 -17 -17 -17 -32 0 -14 -5 -25 -12
-25 -6 0 -8 -3 -5 -6 4 -4 13 -2 21 5 8 6 38 14 67 17 79 7 169 26 175 35 7
12 74 11 74 -1 0 -5 -12 -10 -26 -10 -21 0 -24 -3 -15 -13 13 -16 5 -27 -21
-27 -10 0 -18 -7 -18 -15 0 -8 -15 -17 -37 -21 -21 -4 -43 -13 -50 -19 -6 -7
-31 -15 -54 -19 -24 -4 -49 -12 -57 -19 -8 -6 -22 -12 -31 -12 -11 0 -15 -7
-13 -22 2 -17 -2 -23 -17 -23 -11 0 -26 -7 -35 -15 -20 -20 -26 -19 -26 5 0
17 -3 19 -19 10 -11 -5 -30 -10 -43 -10 -16 0 -19 -3 -10 -9 7 -4 25 -6 40 -3
15 3 24 2 21 -2 -3 -3 -18 -7 -34 -8 -16 -2 -30 -10 -32 -19 -3 -10 -30 -25
-66 -37 -34 -12 -87 -31 -117 -42 -30 -12 -70 -26 -88 -31 -18 -6 -30 -14 -27
-19 3 -4 -21 -16 -52 -25 -61 -18 -124 -45 -133 -57 -8 -10 -59 -28 -80 -28
-20 0 -100 -49 -100 -62 0 -4 -6 -8 -13 -8 -8 0 -22 -9 -32 -20 -12 -13 -31
-20 -57 -20 -27 0 -38 -4 -38 -15 0 -19 -56 -48 -79 -40 -23 7 -51 -3 -51 -20
0 -8 9 -10 25 -7 20 3 25 0 25 -17 0 -13 -6 -21 -18 -21 -10 0 -28 -8 -41 -17
-18 -12 -22 -13 -16 -2 7 11 6 12 -6 3 -8 -7 -28 -15 -45 -18 -19 -4 -34 -15
-37 -25 -3 -11 -28 -28 -66 -42 -40 -16 -61 -29 -61 -40 0 -16 -30 -32 -82
-45 -16 -3 -28 -10 -28 -14 0 -4 -8 -10 -17 -14 -18 -5 -53 -26 -63 -36 -3 -3
-14 -10 -24 -16 -11 -6 -22 -16 -24 -22 -3 -9 1438 -12 6182 -12 l6186 0 0
5200 0 5200 -55 0 c-47 0 -55 3 -55 19 0 10 7 21 15 25 8 3 15 12 15 21 0 19
-75 21 -84 3 -5 -10 -7 -10 -12 0 -3 6 -19 12 -35 12 -19 0 -29 5 -29 15 0 11
-11 15 -40 15 -36 0 -40 3 -40 25 0 16 6 25 15 25 19 0 19 11 0 36 -14 18 -14
18 -15 -8 0 -23 -4 -28 -25 -28 -22 0 -25 4 -25 40 0 40 0 40 -39 40 -25 0
-41 5 -45 15 -3 8 -10 15 -16 15 -5 0 -10 -7 -10 -15 0 -11 -11 -15 -40 -15
-29 0 -40 4 -40 15 0 11 -11 15 -40 15 -36 0 -40 3 -40 25 0 18 5 25 20 25 11
0 20 4 20 8 0 20 -25 29 -70 24 -48 -4 -50 -4 -50 22 0 24 -3 26 -40 26 -36 0
-40 -2 -40 -25 0 -14 -4 -25 -9 -25 -5 0 -18 11 -29 25 -22 27 -37 32 -46 13
-5 -10 -7 -10 -12 0 -3 6 -10 12 -15 12 -12 0 -49 37 -49 50 0 6 -20 10 -45
10 -25 0 -45 5 -45 10 0 6 -7 10 -15 10 -22 0 -55 37 -55 60 0 17 -7 20 -48
20 -41 0 -53 5 -77 30 -28 29 -31 30 -122 30 -55 0 -93 4 -93 10 0 6 37 10 90
10 73 0 90 3 90 15 0 11 -11 15 -40 15 -22 0 -40 -4 -40 -10 0 -5 -18 -10 -40
-10 -29 0 -40 4 -40 15 0 11 11 15 40 15 22 0 40 5 40 10 0 6 -17 10 -37 10
-30 1 -46 9 -78 40 -28 28 -41 36 -43 25 -2 -10 -16 -15 -43 -15 -31 0 -39 4
-39 19 0 18 -85 111 -101 111 -5 0 -18 6 -29 13 -17 10 -22 9 -30 -3 -8 -12
-15 -9 -45 20 -26 25 -35 30 -35 17 0 -13 -9 -17 -40 -17 -29 0 -40 -4 -40
-15 0 -11 -13 -15 -54 -15 -34 0 -56 -5 -59 -12 -2 -7 -8 -10 -12 -6 -5 4 4
19 18 32 15 14 27 34 27 46 0 16 6 20 32 20 l32 0 -30 31 -29 31 -3 -31 c-3
-24 -8 -31 -24 -31 -11 0 -26 -7 -32 -16 -7 -9 -18 -12 -29 -8 -13 5 -17 18
-17 55 0 48 -1 49 -30 49 -16 0 -30 -4 -30 -10 0 -5 -18 -10 -40 -10 -22 0
-40 5 -40 10 0 6 18 10 40 10 29 0 40 4 40 15 0 12 -15 15 -76 15 -97 0 -164
28 -164 69 1 30 21 61 40 61 7 0 19 -8 26 -17 13 -17 13 -17 14 0 0 9 7 17 15
17 18 0 20 19 3 25 -7 2 -37 5 -67 8 -43 3 -57 1 -72 -14 -23 -23 -39 -24 -39
-4 0 11 -11 15 -40 15 -29 0 -40 4 -40 15 0 11 -11 15 -40 15 -22 0 -40 5 -40
10 0 6 -18 10 -40 10 l-40 0 0 40 0 40 -40 0 c-22 0 -40 -4 -40 -10 0 -5 -18
-10 -40 -10 l-40 0 -1 48 c-1 42 -5 51 -40 81 l-39 33 0 -31 c0 -30 -2 -31
-40 -31 -22 0 -40 -4 -40 -10 0 -5 -4 -10 -10 -10 -5 0 -10 23 -10 50 0 38 -4
50 -15 50 -11 0 -15 11 -15 40 0 29 -4 40 -15 40 -8 0 -15 -4 -15 -10 0 -5
-18 -10 -40 -10 -22 0 -40 5 -40 10 0 15 -203 13 -219 -2 -11 -10 -14 -10 -18
0 -4 9 -58 12 -227 12 -164 0 -225 -3 -235 -12 -11 -10 -14 -10 -18 -1 -4 10
-1550 13 -7644 13 l-7639 0 0 -5359z m15600 5178 c0 -11 -4 -17 -10 -14 -5 3
-10 13 -10 21 0 8 5 14 10 14 6 0 10 -9 10 -21z m400 11 c0 -5 -4 -10 -9 -10
-6 0 -13 5 -16 10 -3 6 1 10 9 10 9 0 16 -4 16 -10z m-240 -80 c0 -5 -4 -10
-10 -10 -5 0 -10 5 -10 10 0 6 5 10 10 10 6 0 10 -4 10 -10z m237 -92 c-3 -8
-6 -5 -6 6 -1 11 2 17 5 13 3 -3 4 -12 1 -19z m223 -68 c0 -5 -4 -10 -10 -10
-5 0 -10 5 -10 10 0 6 5 10 10 10 6 0 10 -4 10 -10z m340 0 c0 -5 -4 -10 -10
-10 -5 0 -10 5 -10 10 0 6 5 10 10 10 6 0 10 -4 10 -10z m80 -25 c0 -8 -4 -15
-9 -15 -13 0 -22 16 -14 24 11 11 23 6 23 -9z m180 -95 c0 -5 -4 -10 -10 -10
-5 0 -10 5 -10 10 0 6 5 10 10 10 6 0 10 -4 10 -10z m-100 -120 c0 -5 -4 -10
-10 -10 -5 0 -10 5 -10 10 0 6 5 10 10 10 6 0 10 -4 10 -10z m-80 -10 c0 -5
-4 -10 -9 -10 -6 0 -13 5 -16 10 -3 6 1 10 9 10 9 0 16 -4 16 -10z m80 -70 c0
-5 -4 -10 -10 -10 -5 0 -10 5 -10 10 0 6 5 10 10 10 6 0 10 -4 10 -10z m236
-147 c-10 -10 -19 5 -10 18 6 11 8 11 12 0 2 -7 1 -15 -2 -18z m404 -13 c0 -5
-4 -10 -10 -10 -5 0 -10 5 -10 10 0 6 5 10 10 10 6 0 10 -4 10 -10z m-80 -80
c0 -5 -4 -10 -10 -10 -5 0 -10 5 -10 10 0 6 5 10 10 10 6 0 10 -4 10 -10z
m480 -86 c0 -9 -5 -14 -12 -12 -18 6 -21 28 -4 28 9 0 16 -7 16 -16z m80 6 c0
-5 -4 -10 -10 -10 -5 0 -10 5 -10 10 0 6 5 10 10 10 6 0 10 -4 10 -10z m160
-80 c0 -5 -4 -10 -10 -10 -5 0 -10 5 -10 10 0 6 5 10 10 10 6 0 10 -4 10 -10z
m-80 -80 c0 -5 -4 -10 -10 -10 -5 0 -10 5 -10 10 0 6 5 10 10 10 6 0 10 -4 10
-10z m160 -25 c0 -8 -4 -15 -10 -15 -5 0 -10 7 -10 15 0 8 5 15 10 15 6 0 10
-7 10 -15z m383 -52 c-13 -2 -33 -2 -45 0 -13 2 -3 4 22 4 25 0 35 -2 23 -4z
m337 -108 c0 -11 -11 -15 -40 -15 -29 0 -40 4 -40 15 0 11 11 15 40 15 29 0
40 -4 40 -15z m-400 -55 c0 -5 -4 -10 -10 -10 -5 0 -10 5 -10 10 0 6 5 10 10
10 6 0 10 -4 10 -10z m143 3 c-13 -2 -33 -2 -45 0 -13 2 -3 4 22 4 25 0 35 -2
23 -4z m33 -88 c-11 -9 -38 -14 -60 -13 l-41 1 43 4 c23 2 42 8 42 14 0 5 8 9
18 9 15 -1 15 -2 -2 -15z m207 -92 c-13 -2 -33 -2 -45 0 -13 2 -3 4 22 4 25 0
35 -2 23 -4z m97 -63 c0 -5 -4 -10 -10 -10 -5 0 -10 5 -10 10 0 6 5 10 10 10
6 0 10 -4 10 -10z m240 -80 c0 -5 -4 -10 -10 -10 -5 0 -10 5 -10 10 0 6 5 10
10 10 6 0 10 -4 10 -10z m-2276 -2452 c-3 -4 -18 -8 -35 -8 -16 0 -29 4 -29 8
0 4 15 8 34 8 19 0 32 -4 30 -8z m-84 -18 c-6 -11 -14 -20 -18 -21 -11 -1 -53
-8 -94 -15 -21 -3 -38 -10 -38 -15 0 -4 -17 -11 -37 -14 -33 -6 -187 -46 -233
-61 -8 -3 -17 -5 -19 -4 -2 1 -7 -2 -10 -7 -5 -9 -159 -57 -266 -85 -22 -6
-48 -14 -57 -19 -10 -5 -48 -19 -85 -30 -38 -11 -86 -29 -109 -40 -23 -10 -47
-19 -53 -19 -7 0 -22 -5 -34 -12 -12 -7 -27 -13 -33 -14 -6 -1 -27 -8 -45 -17
-65 -28 -115 -46 -201 -74 -50 -16 -82 -31 -75 -35 7 -4 -7 -8 -30 -8 -24 0
-43 -4 -43 -9 0 -4 -28 -16 -62 -26 -35 -9 -68 -22 -75 -27 -7 -5 -16 -7 -22
-4 -5 3 -11 0 -14 -8 -3 -7 -18 -17 -34 -20 -15 -4 -56 -18 -90 -32 -34 -13
-70 -24 -81 -24 -11 0 -22 -3 -24 -7 -5 -13 -94 -53 -116 -53 -11 0 -23 -4
-27 -10 -3 -5 -12 -7 -19 -4 -7 3 -16 -1 -19 -9 -3 -9 -21 -18 -39 -22 -18 -4
-37 -11 -43 -14 -5 -4 -26 -14 -45 -21 -19 -8 -66 -29 -104 -47 -38 -18 -77
-33 -87 -33 -10 0 -24 -6 -31 -13 -14 -13 -117 -57 -134 -57 -6 0 -19 -8 -28
-19 -9 -10 -31 -21 -47 -25 -17 -3 -53 -17 -81 -31 -27 -14 -55 -25 -61 -25
-6 0 -50 -18 -97 -41 -195 -93 -254 -119 -268 -119 -7 0 -12 -5 -12 -11 0 -6
-6 -9 -14 -6 -8 3 -20 0 -26 -8 -6 -8 -26 -17 -43 -21 -31 -6 -67 -23 -77 -35
-3 -3 -22 -12 -42 -18 -21 -7 -38 -17 -38 -22 0 -5 -9 -9 -20 -9 -11 0 -20 -4
-20 -10 0 -5 -9 -10 -19 -10 -11 0 -23 -5 -26 -10 -4 -6 -11 -7 -17 -4 -6 4
-13 3 -17 -2 -3 -5 -26 -19 -51 -30 -25 -12 -74 -36 -109 -53 -35 -17 -69 -31
-76 -31 -7 0 -18 -7 -25 -15 -7 -8 -27 -17 -46 -21 -19 -3 -36 -10 -39 -14 -3
-5 -33 -22 -68 -38 -323 -155 -593 -287 -637 -311 -8 -5 -33 -17 -55 -27 -22
-10 -48 -25 -57 -33 -10 -8 -18 -11 -18 -7 0 6 -88 -39 -137 -72 -13 -8 -23
-11 -23 -7 0 5 -8 1 -17 -7 -10 -8 -37 -23 -60 -33 -24 -10 -43 -22 -43 -27 0
-4 -6 -8 -12 -9 -7 0 -41 -14 -75 -32 -34 -18 -97 -50 -140 -71 -43 -21 -80
-42 -83 -45 -3 -4 -39 -22 -80 -40 -41 -19 -77 -37 -80 -41 -3 -3 -39 -23 -80
-43 -41 -21 -93 -48 -115 -60 -22 -13 -56 -29 -75 -37 -19 -8 -39 -20 -43 -27
-4 -7 -13 -13 -20 -13 -16 -1 -89 -37 -162 -81 -33 -20 -71 -40 -85 -44 -14
-4 -32 -13 -40 -19 -8 -7 -43 -25 -77 -41 -35 -16 -63 -33 -63 -38 0 -4 -4 -6
-9 -3 -5 3 -14 -1 -21 -9 -6 -7 -17 -12 -24 -9 -8 3 -20 -2 -28 -10 -9 -8 -40
-23 -69 -33 -30 -10 -68 -28 -84 -39 -17 -12 -46 -28 -65 -37 -75 -33 -126
-58 -140 -67 -8 -5 -36 -20 -63 -32 -26 -13 -80 -39 -120 -59 -101 -50 -143
-69 -156 -69 -6 0 -11 -4 -11 -8 0 -5 -35 -26 -77 -46 -43 -20 -96 -46 -118
-58 -22 -12 -61 -32 -87 -46 -27 -13 -48 -28 -48 -32 0 -4 -12 -11 -26 -14
-14 -4 -44 -18 -66 -32 -22 -14 -59 -34 -82 -45 -22 -10 -48 -23 -56 -29 -8
-5 -69 -40 -134 -77 -66 -38 -140 -81 -165 -96 -25 -15 -58 -32 -73 -38 -16
-6 -28 -15 -28 -20 0 -5 -5 -9 -10 -9 -6 0 -57 -25 -113 -56 -56 -31 -138 -75
-182 -97 -44 -22 -82 -43 -85 -46 -3 -3 -71 -39 -152 -80 -82 -41 -148 -78
-148 -82 0 -4 -16 -5 -35 -2 -30 5 -34 3 -29 -11 5 -13 -1 -16 -37 -17 -31 0
-38 -3 -25 -8 12 -5 16 -10 9 -14 -6 -4 -18 -4 -27 -1 -14 6 -100 -34 -421
-193 -60 -30 -118 -57 -129 -59 -11 -2 -22 -7 -25 -12 -6 -8 -25 -17 -46 -21
-5 -2 -24 -11 -41 -22 -17 -10 -38 -19 -45 -19 -8 0 -27 -7 -43 -15 -15 -8
-33 -12 -39 -8 -5 3 -7 1 -4 -4 7 -11 -16 -24 -116 -63 -31 -12 -60 -26 -63
-31 -3 -5 -17 -9 -32 -8 l-27 1 28 12 c15 7 25 15 21 18 -3 4 3 4 15 1 12 -3
21 -1 21 5 0 6 16 16 35 23 19 7 35 17 35 21 0 4 6 8 14 8 7 0 30 11 50 25 20
14 47 27 61 31 13 3 29 12 36 20 6 8 20 14 31 14 10 0 16 4 13 10 -3 6 1 10
10 10 20 0 87 30 96 42 3 5 30 21 60 37 30 15 84 44 122 64 37 21 97 53 135
73 37 20 92 51 122 69 30 18 100 56 155 86 55 30 109 59 120 66 11 7 28 16 37
19 10 3 18 10 18 15 0 5 5 9 12 9 6 0 41 17 77 39 36 21 149 86 251 144 242
137 243 138 327 186 39 22 89 50 110 62 21 12 127 73 235 135 108 63 201 114
206 114 5 0 15 7 22 15 7 8 46 32 86 52 41 20 74 40 74 45 0 4 6 8 14 8 8 0
43 17 77 38 35 21 89 52 119 68 30 16 57 32 60 35 3 3 21 11 40 19 19 7 53 25
75 40 67 44 222 130 234 130 6 0 11 5 11 10 0 6 4 10 9 10 5 0 38 16 73 36 34
20 126 71 203 114 77 42 160 88 185 102 25 14 95 51 155 83 61 32 112 61 115
65 3 3 25 14 50 25 25 11 59 27 75 37 17 9 77 41 135 69 58 29 113 59 123 67
9 9 17 12 17 8 0 -3 18 5 40 19 22 14 40 22 40 18 0 -5 4 -3 8 2 9 14 135 76
145 73 5 -2 13 5 18 15 6 9 16 17 23 17 7 0 37 13 66 29 30 16 58 27 62 25 4
-3 8 -1 8 4 0 5 80 48 178 96 175 87 195 97 230 116 86 47 765 370 779 370 3
0 33 13 67 29 115 55 217 101 223 101 3 0 43 18 89 40 46 22 90 40 97 40 7 0
17 4 22 9 10 9 112 54 230 101 76 30 160 66 187 81 10 5 26 9 37 9 10 0 24 7
31 15 7 8 21 15 32 15 10 0 36 9 56 19 66 35 152 71 170 71 9 0 39 11 66 25
27 13 53 22 57 20 4 -3 12 2 19 10 16 19 47 19 65 1 12 -12 9 -13 -25 -9 -22
3 -40 1 -40 -4 0 -5 -22 -17 -50 -27 -27 -10 -50 -21 -50 -25 0 -4 -10 -7 -22
-8 -11 -1 -24 -7 -28 -14 -5 -6 -13 -8 -20 -4 -9 6 -11 4 -5 -6 6 -11 5 -11
-5 -2 -10 9 -16 8 -28 -3 -8 -8 -27 -18 -43 -21 -16 -3 -29 -9 -29 -13 0 -4
-10 -12 -22 -18 l-23 -11 23 0 c12 -1 22 4 22 10 0 6 6 9 14 6 8 -3 30 3 49
13 19 10 37 17 40 14 2 -3 20 4 38 15 39 24 35 22 117 51 34 12 62 26 62 31 0
5 10 7 23 4 15 -4 28 -1 36 9 11 13 10 17 -10 26 -20 9 -18 10 13 5 42 -6 118
10 118 25 0 6 9 10 20 10 11 0 28 4 38 9 32 18 174 71 189 71 7 0 43 14 78 30
36 17 68 29 72 28 7 -2 36 7 98 32 37 15 60 23 70 25 6 0 24 7 40 13 61 25
102 40 170 61 39 13 79 27 90 32 27 12 244 82 325 104 36 10 69 22 75 27 5 4
18 8 30 8 11 0 44 9 73 20 29 11 63 20 77 20 13 0 26 4 30 10 3 5 12 7 20 4 8
-3 22 2 31 11 9 9 25 14 35 12 11 -3 21 -2 24 3 3 4 22 11 42 16 21 4 45 9 53
11 8 2 32 6 53 9 20 3 37 10 37 15 0 5 11 9 24 9 29 0 177 36 232 56 22 8 44
14 50 13 5 -1 16 0 24 4 34 13 47 15 78 16 30 1 32 -1 22 -19z m-2173 -636
c-3 -3 -12 -4 -19 -1 -8 3 -5 6 6 6 11 1 17 -2 13 -5z m-73 -19 c-22 -16 -58
-20 -49 -5 4 6 10 8 15 5 5 -3 11 -1 15 5 3 5 14 10 23 10 13 0 13 -2 -4 -15z
m-7566 -3867 c-3 -7 -18 -18 -35 -23 -16 -6 -36 -15 -44 -22 -23 -19 -69 -34
-69 -23 0 6 4 10 9 10 5 0 35 15 67 34 65 38 78 42 72 24z m-178 -88 c0 -5 -5
-10 -11 -10 -5 0 -7 5 -4 10 3 6 8 10 11 10 2 0 4 -4 4 -10z m1725 -2090 c-3
-5 -21 -10 -38 -10 -24 0 -28 3 -17 10 20 13 63 13 55 0z m319 -13 c16 -11 15
-13 -9 -15 -14 -1 -35 -7 -46 -12 -25 -14 -26 7 -1 26 22 17 34 17 56 1z
m-6831 -74 c-13 -2 -33 -2 -45 0 -13 2 -3 4 22 4 25 0 35 -2 23 -4z m1600
-170 c-13 -2 -33 -2 -45 0 -13 2 -3 4 22 4 25 0 35 -2 23 -4z m17 -73 c0 -5
-18 -10 -40 -10 -22 0 -40 5 -40 10 0 6 18 10 40 10 22 0 40 -4 40 -10z m500
0 c0 -5 -4 -10 -10 -10 -5 0 -10 5 -10 10 0 6 5 10 10 10 6 0 10 -4 10 -10z
m88 -62 c18 -18 15 -28 -8 -28 -13 0 -20 7 -20 20 0 23 10 26 28 8z m72 -99
c0 -5 -4 -9 -10 -9 -5 0 -10 7 -10 16 0 8 5 12 10 9 6 -3 10 -10 10 -16z
m-160 1 c0 -5 -4 -10 -10 -10 -5 0 -10 5 -10 10 0 6 5 10 10 10 6 0 10 -4 10
-10z m460 -160 c0 -5 -18 -10 -40 -10 -22 0 -40 5 -40 10 0 6 18 10 40 10 22
0 40 -4 40 -10z m164 -146 c26 -10 18 -24 -14 -24 -29 0 -38 9 -23 23 8 9 17
9 37 1z m-4 -69 c0 -8 -7 -15 -15 -15 -16 0 -20 12 -8 23 11 12 23 8 23 -8z
m1460 11 c0 -3 -4 -8 -10 -11 -5 -3 -10 -1 -10 4 0 6 5 11 10 11 6 0 10 -2 10
-4z m-1500 -36 c0 -5 -9 -10 -20 -10 -11 0 -20 5 -20 10 0 6 9 10 20 10 11 0
20 -4 20 -10z m60 -50 c0 -22 -4 -40 -10 -40 -5 0 -10 18 -10 40 0 22 5 40 10
40 6 0 10 -18 10 -40z"/>
<path d="M13966 6882 c-3 -6 -28 -18 -56 -28 -27 -10 -50 -24 -50 -32 0 -8 -7
-11 -17 -8 -10 3 -24 2 -32 -3 -9 -6 -1 -8 25 -7 22 1 51 10 64 19 14 9 34 17
45 17 11 0 34 9 50 20 17 11 25 20 18 20 -6 0 -18 3 -26 6 -8 3 -18 1 -21 -4z"/>
<path d="M13724 6778 c-16 -9 -38 -17 -49 -17 -16 -1 -17 -3 -5 -11 8 -5 25
-7 37 -3 14 3 23 1 23 -6 0 -6 7 -11 15 -11 8 0 15 7 15 15 0 8 8 15 18 15 10
0 27 6 37 14 17 12 15 14 -22 17 -26 3 -51 -2 -69 -13z"/>
<path d="M13632 6705 c14 -30 24 -32 31 -5 4 14 11 18 24 14 15 -5 15 -4 3 5
-8 6 -27 11 -42 11 -26 0 -27 -2 -16 -25z"/>
<path d="M13570 6707 c-14 -6 -27 -14 -30 -17 -3 -4 -13 -9 -22 -13 -25 -9
-22 -27 5 -27 18 0 19 -2 7 -10 -24 -17 41 0 68 17 15 9 21 20 18 30 -3 8 -6
19 -6 24 0 11 -9 11 -40 -4z"/>
<path d="M13459 6648 c-1 -7 -1 -17 0 -21 1 -5 -8 -6 -19 -2 -26 8 -60 -3 -60
-20 0 -8 -9 -17 -20 -20 -11 -3 -20 -11 -20 -16 0 -5 -7 -9 -16 -9 -8 0 -12 5
-9 10 3 6 -1 10 -9 10 -9 0 -16 -4 -16 -10 0 -5 -6 -10 -13 -10 -21 0 -77 -30
-77 -41 0 -5 -6 -9 -14 -9 -7 0 -19 -6 -25 -14 -6 -7 -22 -13 -36 -13 -33 0
-86 -23 -79 -34 3 -5 -6 -9 -20 -9 -16 0 -26 -6 -26 -15 0 -11 -11 -15 -42
-15 -29 0 -38 -3 -29 -9 9 -6 1 -11 -29 -16 -30 -5 -38 -10 -29 -16 10 -6 4
-9 -18 -9 -18 0 -36 -6 -40 -14 -4 -8 -11 -15 -15 -15 -8 -1 -62 -24 -118 -49
-19 -9 -51 -27 -70 -39 -19 -13 -43 -23 -53 -23 -25 0 -105 -42 -89 -47 20 -7
14 -22 -7 -16 -12 3 -28 -4 -41 -17 -17 -17 -24 -19 -30 -9 -7 10 -16 9 -44
-6 -19 -10 -37 -27 -39 -37 -4 -13 -15 -18 -37 -18 -40 0 -90 -26 -90 -46 0
-10 -6 -14 -15 -10 -21 8 -94 -34 -88 -50 3 -8 0 -14 -6 -14 -6 0 -11 5 -11
10 0 14 -16 13 -32 -3 -14 -13 -81 -47 -135 -69 -37 -14 -43 -28 -13 -28 11 0
20 4 20 9 0 6 21 13 46 17 32 4 44 10 40 20 -4 10 2 12 26 7 20 -4 29 -3 25 4
-4 6 12 16 39 23 25 7 53 24 64 38 11 13 20 19 20 13 0 -9 8 -8 28 3 37 20
132 62 160 70 12 4 22 12 22 17 0 5 6 9 13 9 24 1 149 68 135 73 -7 3 -3 6 10
6 13 1 53 15 88 32 48 23 62 34 52 41 -9 7 -5 8 14 4 19 -4 52 7 120 40 51 25
100 50 108 55 33 19 103 49 116 49 8 0 14 3 14 8 0 8 49 32 67 32 7 0 13 5 13
10 0 6 9 10 19 10 11 0 23 5 26 10 3 6 13 10 22 10 30 0 93 34 88 48 -3 7 0
10 5 7 6 -3 20 1 32 9 12 9 33 16 45 16 13 0 23 4 23 8 0 4 19 13 43 19 23 7
50 18 61 26 17 12 17 15 2 29 -12 12 -13 18 -3 21 7 3 5 6 -5 6 -10 1 -19 -5
-19 -11z m-1104 -548 c3 -5 -3 -10 -15 -10 -12 0 -18 5 -15 10 3 6 10 10 15
10 5 0 12 -4 15 -10z"/>
<path d="M11840 5840 c0 -5 5 -10 10 -10 6 0 10 5 10 10 0 6 -4 10 -10 10 -5
0 -10 -4 -10 -10z"/>
<path d="M16240 11936 c0 -9 7 -16 16 -16 17 0 14 22 -4 28 -7 2 -12 -3 -12
-12z"/>
<path d="M16320 11936 c0 -9 7 -16 16 -16 9 0 14 5 12 12 -6 18 -28 21 -28 4z"/>
<path d="M16400 11855 c0 -11 11 -15 40 -15 29 0 40 4 40 15 0 11 -11 15 -40
15 -29 0 -40 -4 -40 -15z"/>
<path d="M16330 11800 c0 -38 2 -40 30 -40 28 0 30 2 30 40 0 38 -2 40 -30 40
-28 0 -30 -2 -30 -40z"/>
<path d="M16500 11791 c-15 -28 -13 -31 20 -31 17 0 30 3 30 6 0 12 -21 44
-30 44 -5 0 -14 -9 -20 -19z"/>
<path d="M16560 11735 c0 -42 3 -55 15 -55 11 0 15 11 15 40 0 22 5 40 10 40
6 0 10 -18 10 -40 0 -29 4 -40 15 -40 12 0 15 13 15 55 l0 55 -40 0 -40 0 0
-55z"/>
<path d="M16720 11720 c0 -29 4 -40 15 -40 11 0 15 11 15 40 0 29 -4 40 -15
40 -11 0 -15 -11 -15 -40z"/>
<path d="M16960 11575 c0 -30 15 -33 30 -6 14 27 13 31 -10 31 -15 0 -20 -7
-20 -25z"/>
<path d="M16825 11539 c-9 -13 -6 -16 29 -25 28 -7 28 -7 10 15 -21 24 -30 26
-39 10z"/>
<path d="M17040 11536 c0 -13 12 -16 56 -16 73 0 70 24 -4 28 -42 2 -52 0 -52
-12z"/>
<path d="M17360 11405 c0 -11 -11 -15 -40 -15 -29 0 -40 -4 -40 -15 0 -12 15
-15 72 -15 l72 0 -29 30 c-33 34 -35 35 -35 15z"/>
<path d="M17505 11320 c3 -5 8 -10 11 -10 2 0 4 5 4 10 0 6 -5 10 -11 10 -5 0
-7 -4 -4 -10z"/>
<path d="M17600 11230 c0 -27 3 -30 32 -30 l32 0 -29 30 c-16 17 -30 30 -32
30 -2 0 -3 -13 -3 -30z"/>
<path d="M17680 11230 c0 -27 3 -30 32 -30 l32 0 -29 30 c-16 17 -30 30 -32
30 -2 0 -3 -13 -3 -30z"/>
<path d="M17920 11215 c0 -8 7 -15 16 -15 14 0 14 3 4 15 -7 8 -14 15 -16 15
-2 0 -4 -7 -4 -15z"/>
<path d="M17840 11136 c0 -9 7 -16 16 -16 9 0 14 5 12 12 -6 18 -28 21 -28 4z"/>
<path d="M18000 11055 c0 -11 11 -15 40 -15 29 0 40 4 40 15 0 11 -11 15 -40
15 -29 0 -40 -4 -40 -15z"/>
<path d="M18106 10975 c-4 -10 1 -15 14 -15 13 0 18 5 14 15 -4 8 -10 15 -14
15 -4 0 -10 -7 -14 -15z"/>
<path d="M18240 10895 c0 -11 11 -15 40 -15 29 0 40 4 40 15 0 11 -11 15 -40
15 -29 0 -40 -4 -40 -15z"/>
<path d="M18400 10896 c0 -9 7 -16 16 -16 9 0 14 5 12 12 -6 18 -28 21 -28 4z"/>
<path d="M18720 10771 c0 -6 -19 -12 -42 -14 l-43 -4 43 -1 c30 -1 42 -6 42
-17 0 -10 10 -15 32 -15 l32 0 -29 30 c-31 33 -35 35 -35 21z"/>
<path d="M18940 10591 c-14 -27 -9 -34 18 -29 19 3 19 5 8 27 l-13 24 -13 -22z"/>
<path d="M19060 10591 c-15 -28 -13 -31 20 -31 17 0 30 3 30 6 0 12 -21 44
-30 44 -5 0 -14 -9 -20 -19z"/>
<path d="M19026 10575 c-3 -8 -1 -15 4 -15 6 0 10 7 10 15 0 8 -2 15 -4 15 -2
0 -6 -7 -10 -15z"/>
<path d="M8340 1000 c-12 -8 -9 -10 12 -10 15 0 30 5 33 10 8 13 -25 13 -45 0z"/>
<path d="M1538 993 c12 -2 32 -2 45 0 12 2 2 4 -23 4 -25 0 -35 -2 -22 -4z"/>
<path d="M8305 990 c-3 -5 -1 -10 4 -10 6 0 11 5 11 10 0 6 -2 10 -4 10 -3 0
-8 -4 -11 -10z"/>
<path d="M1710 945 c12 -15 30 -12 30 6 0 5 -10 9 -21 9 -18 0 -19 -2 -9 -15z"/>
<path d="M8183 948 c-13 -6 -23 -15 -23 -19 0 -5 10 -5 23 0 12 5 38 14 57 19
l35 10 -35 0 c-19 0 -45 -4 -57 -10z"/>
<path d="M2717 879 c7 -7 15 -10 18 -7 3 3 -2 9 -12 12 -14 6 -15 5 -6 -5z"/>
<path d="M2840 796 c0 -2 9 -6 20 -9 11 -3 20 -1 20 4 0 5 -9 9 -20 9 -11 0
-20 -2 -20 -4z"/>
<path d="M3120 785 c0 -13 4 -14 20 -5 11 6 20 13 20 15 0 3 -9 5 -20 5 -11 0
-20 -7 -20 -15z"/>
<path d="M3330 790 c0 -6 7 -13 15 -16 8 -4 15 -17 15 -31 0 -13 4 -22 10 -18
5 3 7 12 4 19 -3 8 -1 17 5 21 23 13 11 35 -19 35 -16 0 -30 -5 -30 -10z"/>
<path d="M3732 628 c6 -18 28 -21 28 -4 0 9 -7 16 -16 16 -9 0 -14 -5 -12 -12z"/>
<path d="M3812 628 c6 -18 28 -21 28 -4 0 9 -7 16 -16 16 -9 0 -14 -5 -12 -12z"/>
<path d="M7490 440 c0 -5 7 -10 15 -10 8 0 15 5 15 10 0 6 -7 10 -15 10 -8 0
-15 -4 -15 -10z"/>
<path d="M7280 330 c0 -5 5 -10 10 -10 6 0 10 5 10 10 0 6 -4 10 -10 10 -5 0
-10 -4 -10 -10z"/>
<path d="M4465 131 c-3 -5 -1 -12 5 -16 5 -3 10 1 10 9 0 18 -6 21 -15 7z"/>
<path d="M4452 68 c6 -18 28 -21 28 -4 0 9 -7 16 -16 16 -9 0 -14 -5 -12 -12z"/>
</g>
</svg>
