<svg width="24" height="24" viewBox="0 0 24 24" fill="none" xmlns="http://www.w3.org/2000/svg">
<path fill-rule="evenodd" clip-rule="evenodd" d="M20.73 7.11023L20.59 6.86023C20.4094 6.55792 20.1547 6.30666 19.85 6.13023L13.14 2.26023C12.8362 2.08398 12.4913 1.99085 12.14 1.99023H11.85C11.4987 1.99085 11.1538 2.08398 10.85 2.26023L4.14 6.14023C3.83697 6.31549 3.58526 6.5672 3.41 6.87023L3.27 7.12023C3.09375 7.42407 3.00062 7.76897 3 8.12023V15.8702C3.00062 16.2215 3.09375 16.5664 3.27 16.8702L3.41 17.1202C3.58979 17.4197 3.84049 17.6704 4.14 17.8502L10.86 21.7202C11.1623 21.9001 11.5082 21.9935 11.86 21.9902H12.14C12.4913 21.9896 12.8362 21.8965 13.14 21.7202L19.85 17.8402C20.156 17.6689 20.4087 17.4162 20.58 17.1102L20.73 16.8602C20.9041 16.5555 20.9971 16.2112 21 15.8602V8.11023C20.9994 7.75897 20.9063 7.41407 20.73 7.11023ZM11.85 3.99023H12.14L18 7.37023L12 10.8302L6 7.37023L11.85 3.99023ZM13 19.4902L18.85 16.1102L19 15.8602V9.10023L13 12.5702V19.4902Z" fill="#1262B8"/>
</svg>
