<svg width="25" height="25" viewBox="0 0 25 25" fill="none" xmlns="http://www.w3.org/2000/svg">
<path fill-rule="evenodd" clip-rule="evenodd" d="M20.983 7.61023L20.843 7.36023C20.6624 7.05792 20.4077 6.80666 20.103 6.63023L13.393 2.76023C13.0892 2.58398 12.7443 2.49085 12.393 2.49023H12.103C11.7517 2.49085 11.4068 2.58398 11.103 2.76023L4.39305 6.64023C4.09002 6.81549 3.83831 7.0672 3.66305 7.37023L3.52305 7.62023C3.3468 7.92407 3.25367 8.26897 3.25305 8.62023V16.3702C3.25367 16.7215 3.3468 17.0664 3.52305 17.3702L3.66305 17.6202C3.84284 17.9197 4.09354 18.1704 4.39305 18.3502L11.113 22.2202C11.4153 22.4001 11.7612 22.4935 12.113 22.4902H12.393C12.7443 22.4896 13.0892 22.3965 13.393 22.2202L20.103 18.3402C20.409 18.1689 20.6617 17.9162 20.833 17.6102L20.983 17.3602C21.1571 17.0555 21.2501 16.7112 21.253 16.3602V8.61023C21.2524 8.25897 21.1593 7.91407 20.983 7.61023ZM12.103 4.49023H12.393L18.253 7.87023L12.253 11.3302L6.25305 7.87023L12.103 4.49023ZM13.253 19.9902L19.103 16.6102L19.253 16.3602V9.60023L13.253 13.0702V19.9902Z" fill="#18589C"/>
</svg>
