<svg width="33" height="33" viewBox="0 0 33 33" fill="none" xmlns="http://www.w3.org/2000/svg">
<path d="M30.25 16.5C30.25 21.6854 30.25 24.2782 28.6391 25.8891C27.0282 27.5 24.4354 27.5 19.25 27.5H13.75C8.56455 27.5 5.97183 27.5 4.36091 25.8891C2.75 24.2782 2.75 21.6854 2.75 16.5C2.75 11.3146 2.75 8.72183 4.36091 7.11091C5.97183 5.5 8.56455 5.5 13.75 5.5H19.25C24.4354 5.5 27.0282 5.5 28.6391 7.11091C29.5372 8.00904 29.9346 9.21234 30.1104 11" stroke="white" stroke-width="1.5" stroke-linecap="round"/>
<path d="M24.75 11L21.7815 13.4737C19.2561 15.5782 17.9935 16.6305 16.5 16.6305C15.6072 16.6305 14.7969 16.2544 13.75 15.5024M8.25 11L9.4875 12.0312L10.725 13.0625" stroke="white" stroke-width="1.5" stroke-linecap="round"/>
</svg>
