<svg width="33" height="33" viewBox="0 0 33 33" fill="none" xmlns="http://www.w3.org/2000/svg">
<path fill-rule="evenodd" clip-rule="evenodd" d="M14 6H19.5C24.6854 6 27.2782 6 28.8891 7.61091C30.5 9.22183 30.5 11.8146 30.5 17C30.5 22.1854 30.5 24.7782 28.8891 26.3891C27.2782 28 24.6854 28 19.5 28H14C8.81455 28 6.22183 28 4.61091 26.3891C3 24.7782 3 22.1854 3 17C3 11.8146 3 9.22183 4.61091 7.61091C6.22183 6 8.81455 6 14 6ZM18.4688 12.875C18.4688 12.3055 18.9305 11.8438 19.5 11.8438H26.375C26.9445 11.8438 27.4062 12.3055 27.4062 12.875C27.4062 13.4445 26.9445 13.9062 26.375 13.9062H19.5C18.9305 13.9062 18.4688 13.4445 18.4688 12.875ZM19.8438 17C19.8438 16.4305 20.3055 15.9688 20.875 15.9688H26.375C26.9445 15.9688 27.4062 16.4305 27.4062 17C27.4062 17.5695 26.9445 18.0312 26.375 18.0312H20.875C20.3055 18.0312 19.8438 17.5695 19.8438 17ZM21.2188 21.125C21.2188 20.5555 21.6805 20.0938 22.25 20.0938H26.375C26.9445 20.0938 27.4062 20.5555 27.4062 21.125C27.4062 21.6945 26.9445 22.1562 26.375 22.1562H22.25C21.6805 22.1562 21.2188 21.6945 21.2188 21.125ZM15.375 12.875C15.375 14.3938 14.1438 15.625 12.625 15.625C11.1062 15.625 9.875 14.3938 9.875 12.875C9.875 11.3562 11.1062 10.125 12.625 10.125C14.1438 10.125 15.375 11.3562 15.375 12.875ZM12.625 23.875C18.125 23.875 18.125 22.6438 18.125 21.125C18.125 19.6062 15.6626 18.375 12.625 18.375C9.58743 18.375 7.125 19.6062 7.125 21.125C7.125 22.6438 7.125 23.875 12.625 23.875Z" fill="white"/>
</svg>
