<svg width="33" height="30" viewBox="0 0 33 30" fill="none" xmlns="http://www.w3.org/2000/svg">
<path d="M22.9697 19.7272L24.3657 18.3848C22.7168 16.812 20.709 15.9489 18.6323 15.9489C16.5811 15.9489 14.5967 16.7914 12.959 18.3282L14.3545 19.6703C15.6807 18.4167 17.1934 17.8239 18.6323 17.8239C20.0933 17.8239 21.6294 18.4347 22.9697 19.7272Z" fill="white"/>
<path d="M27.0195 15.8335L28.416 14.4907C25.6685 11.8369 22.2153 10.3691 18.6338 10.3691C15.0771 10.3691 11.647 11.8164 8.90918 14.4349L10.3057 15.7775C12.7197 13.4532 15.6704 12.2441 18.6338 12.2441C21.6206 12.2441 24.5942 13.4726 27.0195 15.8335Z" fill="white"/>
<path d="M30.9287 12.0749L32.3257 10.7319C28.522 7.04563 23.6709 5 18.6343 5C13.6226 5 8.79492 7.02515 5 10.6765L6.39648 12.0193C9.86084 8.66863 14.2056 6.875 18.6343 6.875C23.0874 6.875 27.4551 8.68843 30.9287 12.0749Z" fill="white"/>
<path d="M20.6626 23.0951C20.6626 24.1306 19.7671 24.9701 18.6626 24.9701C17.5581 24.9701 16.6626 24.1306 16.6626 23.0951C16.6626 22.0595 17.5581 21.2201 18.6626 21.2201C19.7671 21.2201 20.6626 22.0595 20.6626 23.0951Z" fill="white"/>
</svg>
