<svg width="48" height="48" viewBox="0 0 48 48" fill="none" xmlns="http://www.w3.org/2000/svg">
<path fill-rule="evenodd" clip-rule="evenodd" d="M41.46 14.2302L41.18 13.7302C40.8188 13.1256 40.3094 12.6231 39.7 12.2702L26.28 4.53023C25.6724 4.17773 24.9826 3.99147 24.28 3.99023H23.7C22.9974 3.99147 22.3076 4.17773 21.7 4.53023L8.28 12.2902C7.67394 12.6408 7.17052 13.1442 6.82 13.7502L6.54 14.2502C6.1875 14.8579 6.00124 15.5477 6 16.2502V31.7502C6.00124 32.4528 6.1875 33.1426 6.54 33.7502L6.82 34.2502C7.17958 34.8492 7.68098 35.3506 8.28 35.7102L21.72 43.4502C22.3246 43.81 23.0164 43.9968 23.72 43.9902H24.28C24.9826 43.989 25.6724 43.8028 26.28 43.4502L39.7 35.6902C40.312 35.3476 40.8174 34.8422 41.16 34.2302L41.46 33.7302C41.8082 33.1208 41.9942 32.4322 42 31.7302V16.2302C41.9988 15.5277 41.8126 14.8379 41.46 14.2302ZM23.7 7.99023H24.28L36 14.7502L24 21.6702L12 14.7502L23.7 7.99023ZM26 38.9902L37.7 32.2302L38 31.7302V18.2102L26 25.1502V38.9902Z" fill="#1262B8"/>
</svg>
