<svg width="33" height="33" viewBox="0 0 33 33" fill="none" xmlns="http://www.w3.org/2000/svg">
<path d="M22 5.50238C24.9907 5.51903 26.6103 5.65165 27.6668 6.70818C28.875 7.91636 28.875 9.8609 28.875 13.75V22C28.875 25.8891 28.875 27.8336 27.6668 29.0418C26.4586 30.25 24.5141 30.25 20.625 30.25H12.375C8.48591 30.25 6.54137 30.25 5.33318 29.0418C4.125 27.8336 4.125 25.8891 4.125 22V13.75C4.125 9.8609 4.125 7.91636 5.33318 6.70818C6.38971 5.65165 8.00934 5.51903 11 5.50238" stroke="white" stroke-width="1.5"/>
<path d="M11 19.25H22" stroke="white" stroke-width="1.5" stroke-linecap="round"/>
<path d="M9.625 14.4375H23.375" stroke="white" stroke-width="1.5" stroke-linecap="round"/>
<path d="M12.375 24.0625H20.625" stroke="white" stroke-width="1.5" stroke-linecap="round"/>
<path d="M11 4.8125C11 3.67341 11.9234 2.75 13.0625 2.75H19.9375C21.0766 2.75 22 3.67341 22 4.8125V6.1875C22 7.32659 21.0766 8.25 19.9375 8.25H13.0625C11.9234 8.25 11 7.32659 11 6.1875V4.8125Z" stroke="white" stroke-width="1.5"/>
</svg>
