<svg width="25" height="21" viewBox="0 0 25 21" fill="none" xmlns="http://www.w3.org/2000/svg">
<path d="M12.2513 5.83712L12.3037 6.69905L11.4294 6.59351C8.24673 6.18893 5.4663 4.81687 3.10556 2.51252L1.95142 1.36914L1.65414 2.21348C1.02461 4.09566 1.42681 6.08338 2.73833 7.42026C3.43781 8.15906 3.28043 8.2646 2.07383 7.82484C1.65414 7.68412 1.28691 7.57857 1.25194 7.63135C1.12953 7.75448 1.54922 9.35521 1.88147 9.98847C2.33613 10.868 3.26294 11.7299 4.27719 12.2401L5.13405 12.6446L4.11981 12.6622C3.14053 12.6622 3.10556 12.6798 3.21048 13.0492C3.56022 14.1926 4.94169 15.4063 6.48055 15.9341L7.56474 16.3035L6.62044 16.8663C5.22149 17.6755 3.57771 18.1329 1.93393 18.168C1.14702 18.1856 0.5 18.256 0.5 18.3088C0.5 18.4847 2.63341 19.4697 3.87499 19.8567C7.59972 21.0001 12.0239 20.5076 15.3464 18.555C17.7072 17.1654 20.0679 14.4037 21.1696 11.7299C21.7642 10.3051 22.3587 7.70171 22.3587 6.45278C22.3587 5.64362 22.4112 5.53808 23.3905 4.5706C23.9675 4.00771 24.5096 3.39204 24.6145 3.21614C24.7894 2.88192 24.7719 2.88192 23.8801 3.18095C22.3937 3.70867 22.1839 3.63831 22.9183 2.84674C23.4604 2.28384 24.1074 1.26359 24.1074 0.964554C24.1074 0.911783 23.8451 0.999735 23.5478 1.15805C23.2331 1.33395 22.5336 1.59781 22.009 1.75613L21.0647 2.05516L20.2078 1.47468C19.7357 1.15805 19.0712 0.80624 18.7214 0.700697C17.8296 0.454431 16.4656 0.489611 15.6612 0.771059C13.4753 1.56263 12.0939 3.60313 12.2513 5.83712Z" fill="#E5E5E5"/>
</svg>
